<!-- Generated by IcoMoon.io -->
<svg version="1.1" xmlns="http://www.w3.org/2000/svg" width="32" height="32" viewBox="0 0 32 32">
<title>info</title>
<path d="M25.063 6.938c-2.313-2.313-5.563-3.75-9.063-3.75s-6.75 1.438-9.063 3.75c-2.313 2.313-3.75 5.563-3.75 9.063 0 7.063 5.75 12.813 12.813 12.813 3.5 0 6.75-1.438 9.063-3.75s3.75-5.563 3.75-9.063c0-3.5-1.438-6.75-3.75-9.063zM17.25 22.5c0 0.75-0.563 1.313-1.25 1.313s-1.25-0.563-1.25-1.313v-8.688c0-0.688 0.563-1.25 1.25-1.25s1.25 0.563 1.25 1.25zM17.25 9.75c0 0.688-0.563 1.25-1.25 1.25s-1.25-0.563-1.25-1.25v-0.25c0-0.75 0.563-1.313 1.25-1.313s1.25 0.563 1.25 1.313z"></path>
</svg>
