<!-- Generated by IcoMoon.io -->
<svg version="1.1" xmlns="http://www.w3.org/2000/svg" width="32" height="32" viewBox="0 0 32 32">
<title>cadenas</title>
<path d="M25.6 12.8h-1.6v-4.8c0-4.411-3.589-8-8-8s-8 3.589-8 8v4.8h-1.6c-0.884 0-1.6 0.716-1.6 1.6v16c0 0.884 0.716 1.6 1.6 1.6h19.2c0.884 0 1.6-0.716 1.6-1.6v-16c0-0.884-0.716-1.6-1.6-1.6zM9.6 8c0-3.535 2.865-6.4 6.4-6.4s6.4 2.865 6.4 6.4v4.8h-12.8v-4.8zM25.6 30.4h-19.2v-16h19.2v16z"></path>
<path d="M16 19.2c-1.323 0-2.4 1.077-2.4 2.4 0 1.042 0.671 1.921 1.6 2.253v2.547h1.6v-2.547c0.929-0.331 1.6-1.211 1.6-2.253 0-1.323-1.077-2.4-2.4-2.4zM16 22.4c-0.442 0-0.8-0.358-0.8-0.8s0.358-0.8 0.8-0.8c0.442 0 0.8 0.358 0.8 0.8s-0.358 0.8-0.8 0.8z"></path>
</svg>
