<!-- Generated by IcoMoon.io -->
<svg version="1.1" xmlns="http://www.w3.org/2000/svg" width="29" height="32" viewBox="0 0 29 32">
<title>parcel-shipping</title>
<path d="M24.324 10.343h-8.566l-4.848 4.768h8.646l4.768-4.768zM25.779 11.636l-5.010 4.848v6.141l5.010-4.849v-6.141zM18.829 17.050h-9.455v6.869h9.455v-6.869zM27.718 8.323v10.263l-7.515 7.273h-12.687v-10.182l7.515-7.273h12.687v-0.081zM14.789 0.566l2.586 2.667c0.323 0.323 0.404 0.889 0.081 1.293l-0.081 0.081-2.505 2.586c-0.404 0.404-0.97 0.404-1.374 0-0.323-0.323-0.404-0.889-0.081-1.293l0.566-0.566c-5.091 0.485-9.455 4.040-10.828 8.97-1.778 6.626 2.343 13.495 9.131 15.354 5.818 1.535 11.798-1.050 14.545-6.141 0.242-0.485 0.808-0.646 1.293-0.404s0.646 0.808 0.404 1.293c-3.151 5.899-10.101 8.889-16.727 7.111-7.838-2.101-12.525-10.020-10.505-17.697 1.616-6.141 7.111-10.343 13.495-10.586l-1.212-1.293c-0.404-0.404-0.404-0.97 0-1.374 0.242-0.323 0.808-0.323 1.212 0z"></path>
</svg>
