<!-- Generated by IcoMoon.io -->
<svg version="1.1" xmlns="http://www.w3.org/2000/svg" width="46" height="32" viewBox="0 0 46 32">
<title>truck</title>
<path d="M8.092 23.378h-2.82v-19.84h22.257v4.671h9.245c0.471 0 0.893 0.295 1.064 0.744l2.397 6.299c0.051 0.135 0.078 0.278 0.078 0.423v6.536c0 0.645-0.511 1.167-1.141 1.167h-1.565c-0.431 2.455-2.53 4.319-5.055 4.319s-4.625-1.863-5.055-4.318h-9.293c-0.431 2.455-2.53 4.318-5.055 4.318s-4.625-1.863-5.055-4.318zM25.246 21.043v-15.172h-17.691v0.817h3.415c0.635 0 1.15 0.515 1.15 1.15v0.033c0 0.635-0.515 1.15-1.15 1.15h-3.415v3.485c0-0.635 0.515-1.15 1.15-1.15h2.265c0.635 0 1.15 0.515 1.15 1.15v0.033c0 0.635-0.515 1.15-1.15 1.15h-2.265c-0.635 0-1.15-0.515-1.15-1.15v8.503h0.641c0.599-2.221 2.589-3.851 4.952-3.851s4.352 1.631 4.952 3.851h7.147zM27.599 21.043c0.599-2.221 2.589-3.851 4.952-3.851s4.352 1.63 4.952 3.851h0.527v-5.149l-2.036-5.351h-8.465v10.501h0.071zM16 22.444c0-1.611-1.277-2.918-2.854-2.918s-2.853 1.306-2.853 2.918c0 1.611 1.278 2.918 2.853 2.918s2.854-1.306 2.854-2.918zM29.697 22.444c0 1.611 1.277 2.918 2.853 2.918s2.853-1.306 2.853-2.918c0-1.611-1.278-2.918-2.853-2.918s-2.853 1.306-2.853 2.918z"></path>
</svg>
